# xmcd CD database file
#
# Track frame offsets:
#	150
#	20265
#	34762
#	47459
#	65478
#	83687
#	100677
#	134905
#	156682
#	178382
#	202006
#	219573
#
# Disc length: 3510 seconds
#
# Revision: 0
# Processed by: cddbd v1.5.2PL0 Copyright (c) Steve Scherf et al.
# Submitted via: CDex 1.70beta3
#
DISCID=af0db40c
DTITLE=KYOTO JAZZ MASSIVE - Tokyo Marathon Music Presents Tokyo Night Run
DYEAR=2011
DGENRE=Jazz
TTITLE0=Jill Scott - So In Love (feat. Anthony Hamilton)
TTITLE1=Donny Hathaway - Voice Inside (Everything Is Everything)
TTITLE2=Tower of Power - Can't You See (You Doin' Me Wrong)
TTITLE3=Leon Ware - Baby Don't Stop Me
TTITLE4=Eugene Record - Here Comes the Sun
TTITLE5=Deodato - Whistle Bump
TTITLE6=Shuya Okino - Deep Into Sunshine feat. N'Dea Davenport (Unreleased Boogie Mix)
TTITLE7=Tasha Thomas - You Put the Music In Me
TTITLE8=Sister Sledge - As
TTITLE9=45 - Much Longer feat.Gizelle Smith
TTITLE10=The Spinners - Then Came You
TTITLE11=George Benson - The World Is a Ghetto
EXTD=YEAR: 2011
EXTT0=
EXTT1=
EXTT2=
EXTT3=
EXTT4=
EXTT5=
EXTT6=
EXTT7=
EXTT8=
EXTT9=
EXTT10=
EXTT11=
PLAYORDER=
